name Walk2.mot
datacolumns 19
datarows 22
range 1.72500000 1.83000000
endheader

                time	   L_ground_force_vx	   L_ground_force_vy	   L_ground_force_vz	   L_ground_force_px	   L_ground_force_py	   L_ground_force_pz	   R_ground_force_vx	   R_ground_force_vy	   R_ground_force_vz	   R_ground_force_px	   R_ground_force_py	   R_ground_force_pz	   L_ground_torque_x	   L_ground_torque_y	   L_ground_torque_z	   R_ground_torque_x	   R_ground_torque_y	   R_ground_torque_z	
          1.72500000	         18.95575509	        730.26920486	         46.30133736	         -0.23471509	          0.00000000	         -0.05234357	          0.00767129	          0.06221315	          0.01853407	          0.00009028	          0.00000000	          0.00004162	          0.00000000	          2.59719245	          0.00000000	          0.00000000	         -0.00287028	          0.00000000	
          1.73000000	         21.06398140	        736.29006571	         46.68121519	         -0.23311974	          0.00000000	         -0.05250867	          0.00816334	          0.10240524	          0.02537428	          0.00012841	          0.00000000	          0.00005890	          0.00000000	          2.57052188	          0.00000000	          0.00000000	         -0.00341203	          0.00000000	
          1.73500000	         23.24398494	        742.29216882	         47.09019782	         -0.23153937	          0.00000000	         -0.05265870	          0.00792386	          0.15245054	          0.03291140	          0.00017203	          0.00000000	          0.00007857	          0.00000000	          2.53665729	          0.00000000	          0.00000000	         -0.00383602	          0.00000000	
          1.74000000	         25.51002447	        748.27932365	         47.54611425	         -0.22998074	          0.00000000	         -0.05279271	          0.00657318	          0.21168872	          0.04060573	          0.00021883	          0.00000000	          0.00009957	          0.00000000	          2.49837805	          0.00000000	          0.00000000	         -0.00402409	          0.00000000	
          1.74500000	         27.87513612	        754.26673398	         48.06297032	         -0.22845102	          0.00000000	         -0.05291144	          0.00365630	          0.27795639	          0.04759628	          0.00026483	          0.00000000	          0.00012003	          0.00000000	          2.45825042	          0.00000000	          0.00000000	         -0.00382108	          0.00000000	
          1.75000000	         30.35100086	        760.27839899	         48.64939683	         -0.22695813	          0.00000000	         -0.05301699	         -0.00134314	          0.34701300	          0.05262725	          0.00030390	          0.00000000	          0.00013713	          0.00000000	          2.41828638	          0.00000000	          0.00000000	         -0.00303327	          0.00000000	
          1.75500000	         32.94767662	        766.34383030	         49.30863370	         -0.22551081	          0.00000000	         -0.05311305	         -0.00897352	          0.41190205	          0.05398202	          0.00032735	          0.00000000	          0.00014688	          0.00000000	          2.37977831	          0.00000000	          0.00000000	         -0.00143068	          0.00000000	
          1.76000000	         35.67293050	        772.49269854	         50.03856489	         -0.22411813	          0.00000000	         -0.05320216	         -0.01976549	          0.46228961	          0.04943713	          0.00032353	          0.00000000	          0.00014398	          0.00000000	          2.34323767	          0.00000000	          0.00000000	          0.00124480	          0.00000000	
          1.76500000	         38.53179547	        778.75195951	         50.83153575	         -0.22278815	          0.00000000	         -0.05328421	         -0.03415664	          0.48384967	          0.03625293	          0.00027769	          0.00000000	          0.00012169	          0.00000000	          2.30891282	          0.00000000	          0.00000000	          0.00526337	          0.00000000	
          1.77000000	         41.52636499	        785.14479436	         51.67444999	         -0.22152759	          0.00000000	         -0.05335773	         -0.05238542	          0.45779774	          0.01122275	          0.00017195	          0.00000000	          0.00007194	          0.00000000	          2.27688835	          0.00000000	          0.00000000	          0.01088074	          0.00000000	
          1.77500000	         44.65627580	        791.68636316	         52.55065288	         -0.22033962	          0.00000000	         -0.05342092	         -0.07435043	          0.36071357	         -0.02919288	         -0.00001414	          0.00000000	         -0.00001453	          0.00000000	          2.24758712	          0.00000000	          0.00000000	          0.01829844	          0.00000000	
          1.78000000	         47.91915162	        798.38055203	         53.44268939	         -0.21922418	          0.00000000	         -0.05347283	         -0.09943272	          0.16483637	         -0.08861590	         -0.00030258	          0.00000000	         -0.00014757	          0.00000000	          2.22191392	          0.00000000	          0.00000000	          0.02760874	          0.00000000	
          1.78500000	         51.31142064	        805.21709476	         54.33398996	         -0.21818047	          0.00000000	         -0.05351387	         -0.12628269	         -0.16093951	         -0.17035012	         -0.00071505	          0.00000000	         -0.00033683	          0.00000000	          2.20067763	          0.00000000	          0.00000000	          0.03872210	          0.00000000	
          1.79000000	         54.82850914	        812.16707387	         55.21007990	         -0.21720656	          0.00000000	         -0.05354604	         -0.15257778	         -0.64909945	         -0.27679584	         -0.00127007	          0.00000000	         -0.00059041	          0.00000000	          2.18448167	          0.00000000	          0.00000000	          0.05127652	          0.00000000	
          1.79500000	         58.46527408	        819.18237941	         56.05887803	         -0.21629948	          0.00000000	         -0.05357265	         -0.17476469	         -1.33027396	         -0.40864845	         -0.00197892	          0.00000000	         -0.00091304	          0.00000000	          2.17345602	          0.00000000	          0.00000000	          0.06452981	          0.00000000	
          1.80000000	         62.21566776	        826.19891610	         56.87139562	         -0.21545617	          0.00000000	         -0.05359634	         -0.18780912	         -2.22842355	         -0.56385889	         -0.00284022	          0.00000000	         -0.00130353	          0.00000000	          2.16705813	          0.00000000	          0.00000000	          0.07723837	          0.00000000	
          1.80500000	         66.07128105	        833.13823811	         57.64278215	         -0.21467346	          0.00000000	         -0.05361906	         -0.18498819	         -3.35415259	         -0.73635128	         -0.00383305	          0.00000000	         -0.00175168	          0.00000000	          2.16420831	          0.00000000	          0.00000000	          0.08753019	          0.00000000	
          1.81000000	         70.02277050	        839.91097216	         58.37302221	         -0.21394678	          0.00000000	         -0.05364201	         -0.15777505	         -4.69593041	         -0.91451962	         -0.00490851	          0.00000000	         -0.00223450	          0.00000000	          2.16391684	          0.00000000	          0.00000000	          0.09278411	          0.00000000	
          1.81500000	         74.06416922	        846.41862103	         59.06511618	         -0.21327034	          0.00000000	         -0.05366531	         -0.09588135	         -6.20913144	         -1.07956577	         -0.00598021	          0.00000000	         -0.00271182	          0.00000000	          2.16569046	          0.00000000	          0.00000000	          0.08953408	          0.00000000	
          1.82000000	         78.19534893	        852.55628594	         59.72232356	         -0.21263894	          0.00000000	         -0.05368822	          0.01245930	         -7.80302617	         -1.20379461	         -0.00691387	          0.00000000	         -0.00312170	          0.00000000	          2.16969558	          0.00000000	          0.00000000	          0.07342399	          0.00000000	
          1.82500000	         82.42014374	        858.21908321	         60.34655261	         -0.21204845	          0.00000000	         -0.05371009	          0.17986693	         -9.32618103	         -1.24905286	         -0.00751713	          0.00000000	         -0.00337586	          0.00000000	          2.17653580	          0.00000000	          0.00000000	          0.03924700	          0.00000000	
          1.83000000	         86.74304932	        863.30406128	         60.93715725	         -0.21149525	          0.00000000	         -0.05373110	          0.41873635	        -10.55117781	         -1.16558437	         -0.00753076	          0.00000000	         -0.00335586	          0.00000000	          2.18647722	          0.00000000	          0.00000000	         -0.01888817	          0.00000000	
